<svg xmlns="http://www.w3.org/2000/svg" viewBox="0 0 100 100">
  <!-- 8-segment color wheel, clockwise from 12 o'clock -->
  <!-- Segment 1: 12→3 top-right — orange -->
  <path d="M50 50 L50 6 A44 44 0 0 1 81.1 18.9 Z" fill="#E8923A"/>
  <!-- Segment 2: top-right→right — olive/yellow -->
  <path d="M50 50 L81.1 18.9 A44 44 0 0 1 94 50 Z" fill="#C4A832"/>
  <!-- Segment 3: right→bottom-right — yellow-green -->
  <path d="M50 50 L94 50 A44 44 0 0 1 81.1 81.1 Z" fill="#C8D96B"/>
  <!-- Segment 4: bottom-right→bottom — green -->
  <path d="M50 50 L81.1 81.1 A44 44 0 0 1 50 94 Z" fill="#6BAF6E"/>
  <!-- Segment 5: bottom→bottom-left — teal -->
  <path d="M50 50 L50 94 A44 44 0 0 1 18.9 81.1 Z" fill="#4A9BA8"/>
  <!-- Segment 6: bottom-left→left — navy -->
  <path d="M50 50 L18.9 81.1 A44 44 0 0 1 6 50 Z" fill="#2D3B7A"/>
  <!-- Segment 7: left→top-left — dark brown -->
  <path d="M50 50 L6 50 A44 44 0 0 1 18.9 18.9 Z" fill="#4A2E1A"/>
  <!-- Segment 8: top-left→12 — red/crimson -->
  <path d="M50 50 L18.9 18.9 A44 44 0 0 1 50 6 Z" fill="#B03A2E"/>
  <!-- Center white circle -->
  <circle cx="50" cy="50" r="17" fill="white"/>
</svg>
